<svg width="106" height="41" viewBox="0 0 106 41" fill="none" xmlns="http://www.w3.org/2000/svg">
<path d="M0.157525 33.7075H4.23592C4.53924 33.7075 4.82092 33.7827 5.08218 33.9344C5.34345 34.086 5.54865 34.2899 5.70031 34.5487C5.85197 34.8061 5.92717 35.0904 5.92717 35.3988C5.92717 35.7072 5.84815 35.9914 5.69011 36.2489C5.53208 36.5063 5.32179 36.7115 5.0567 36.8632C4.79287 37.0148 4.50611 37.09 4.1964 37.09H1.12232V36.124H4.21552C4.41562 36.124 4.58895 36.0526 4.73807 35.9111C4.88591 35.7697 4.95983 35.5988 4.95983 35.3988C4.95983 35.1987 4.88846 35.0279 4.74699 34.8864C4.60552 34.7449 4.43474 34.6736 4.23464 34.6736H1.12232V36.124H0.15625V33.7075H0.157525ZM1.12487 39.5065H0.158801V37.09H1.12487V39.5065ZM4.47807 37.09C4.74188 37.09 4.96875 37.1856 5.15993 37.3755C5.34982 37.5654 5.44541 37.7923 5.44541 38.0574V39.5078H4.47934V37.0913L4.47807 37.09Z" fill="white"/>
<path d="M6.89453 33.7075H12.6935V34.6736H7.86061V36.124H6.89453V33.7075ZM6.89453 37.09H7.86061V38.5404H12.6935V39.5065H6.89453V37.09ZM7.86061 36.124H11.7261V37.09H7.86061V36.124Z" fill="white"/>
<path d="M14.6275 34.6736V36.124H13.6615V34.8966C13.6615 34.5678 13.7774 34.2874 14.0094 34.0554C14.2413 33.8235 14.5217 33.7075 14.8506 33.7075H18.2726C18.6014 33.7075 18.8818 33.8235 19.1137 34.0554C19.3457 34.2874 19.4616 34.5678 19.4616 34.8966V36.124H18.4956V34.6736H14.6301H14.6275ZM14.6275 39.5065V36.124H18.4931V37.09H13.6602V39.5065H14.6262H14.6275ZM19.4604 39.5065V37.09H18.4943V39.5065H19.4604Z" fill="white"/>
<path d="M20.4263 33.7075H21.3923V38.5404H20.4263V33.7075ZM21.3923 38.5404H26.2252V39.5065H21.3923V38.5404Z" fill="white"/>
<path d="M29.1624 33.7079H30.1284V38.5407H31.5788C31.5788 38.8046 31.4833 39.0314 31.2934 39.2226C31.1035 39.4125 30.8766 39.508 30.6115 39.508H30.3502C30.0214 39.508 29.741 39.3921 29.509 39.1601C29.2771 38.9282 29.1611 38.6478 29.1611 38.3189V33.7091L29.1624 33.7079ZM31.5775 33.7079H32.5436V38.5407H31.5775V33.7079ZM34.9614 33.7079V38.3177C34.9614 38.6465 34.8454 38.9269 34.6134 39.1588C34.3814 39.3908 34.1011 39.5068 33.7722 39.5068H33.511C33.2471 39.5068 33.019 39.4112 32.8291 39.2213C32.6392 39.0314 32.5436 38.8046 32.5436 38.5394H33.994V33.7065H34.9601L34.9614 33.7079Z" fill="white"/>
<path d="M36.7531 39.2856C36.4982 39.1377 36.2969 38.9363 36.1489 38.6814C36.0011 38.4265 35.9272 38.1487 35.9272 37.8454V34.6757H36.8932V37.7881C36.8932 37.9945 36.9672 38.1716 37.115 38.3195C37.2628 38.4674 37.44 38.5413 37.6465 38.5413H40.0043C40.2108 38.5413 40.388 38.4674 40.5358 38.3195C40.6836 38.1716 40.7576 37.9945 40.7576 37.7881V35.4302C40.7576 35.2238 40.6836 35.0466 40.5358 34.8988C40.388 34.7509 40.2108 34.677 40.0043 34.677H36.892V33.7109H40.0617C40.365 33.7109 40.6429 33.7848 40.8977 33.9327C41.1526 34.0805 41.354 34.2819 41.5019 34.5368C41.6497 34.7917 41.7236 35.0695 41.7236 35.3728V37.8467C41.7236 38.15 41.6497 38.4279 41.5019 38.6828C41.354 38.9376 41.1526 39.139 40.8977 39.2869C40.6429 39.4347 40.365 39.5086 40.0617 39.5086H37.5879C37.2845 39.5086 37.0067 39.4347 36.7518 39.2869L36.7531 39.2856Z" fill="white"/>
<path d="M42.6922 33.7085H46.7706C47.0739 33.7085 47.3556 33.7837 47.6169 33.9354C47.8781 34.087 48.0833 34.2909 48.235 34.5497C48.3866 34.8071 48.4618 35.0913 48.4618 35.3997C48.4618 35.7081 48.3828 35.9923 48.2248 36.2498C48.0668 36.5072 47.8565 36.7125 47.5913 36.8641C47.3276 37.0158 47.0408 37.091 46.7311 37.091H43.657V36.1249H46.7502C46.9503 36.1249 47.1236 36.0536 47.2727 35.9121C47.4206 35.7706 47.4945 35.5998 47.4945 35.3997C47.4945 35.1996 47.4231 35.0288 47.2816 34.8874C47.1402 34.7459 46.9694 34.6746 46.7693 34.6746H43.657V36.1249H42.6909V33.7085H42.6922ZM43.6595 39.5074H42.6935V37.091H43.6595V39.5074ZM47.0128 37.091C47.2765 37.091 47.5034 37.1866 47.6946 37.3765C47.8845 37.5664 47.9801 37.7932 47.9801 38.0584V39.5087H47.014V37.0923L47.0128 37.091Z" fill="white"/>
<path d="M49.4292 33.7085H50.3953V38.5414H49.4292V33.7085ZM50.3965 38.5414H55.2295V39.5074H50.3965V38.5414Z" fill="white"/>
<path d="M56.1956 34.6739H57.1616V38.5394H60.274C60.4804 38.5394 60.6576 38.4668 60.8055 38.3215C60.9533 38.1762 61.0272 38.0004 61.0272 37.7951V35.4169C61.0272 35.2104 60.9533 35.0346 60.8055 34.8905C60.6576 34.7453 60.4804 34.6726 60.274 34.6726H57.1616V33.7065H60.3314C60.6347 33.7065 60.9125 33.7817 61.1675 33.9334C61.4224 34.0851 61.6237 34.289 61.7715 34.5477C61.9194 34.8052 61.9933 35.0855 61.9933 35.3889V37.8244C61.9933 38.1278 61.9194 38.4082 61.7715 38.6656C61.6237 38.9231 61.4224 39.1282 61.1675 39.2799C60.9125 39.4316 60.6347 39.5068 60.3314 39.5068H56.1943V34.6739H56.1956Z" fill="white"/>
<path d="M66.4303 39.2849C66.1754 39.1371 65.9728 38.9357 65.8211 38.6808C65.6695 38.4259 65.5942 38.1481 65.5942 37.8448V35.371C65.5942 35.0677 65.6695 34.7898 65.8211 34.5349C65.9728 34.28 66.1754 34.0786 66.4303 33.9308C66.6852 33.7829 66.9606 33.709 67.2562 33.709H69.6816C69.9581 33.709 70.2169 33.774 70.4552 33.9027C70.6936 34.0315 70.8898 34.206 71.0453 34.4253C71.2008 34.6445 71.2938 34.8892 71.3257 35.1594H70.3303C70.2717 35.018 70.1786 34.9019 70.0499 34.8115C69.9212 34.721 69.7798 34.6764 69.6242 34.6764H67.2562C67.0497 34.6764 66.8739 34.7503 66.7298 34.8982C66.5846 35.046 66.5119 35.2231 66.5119 35.4296V37.7874C66.5119 37.9939 66.5846 38.171 66.7298 38.3188C66.8751 38.4667 67.0497 38.5406 67.2562 38.5406H69.6242C69.8307 38.5406 70.0079 38.4667 70.1557 38.3188C70.3035 38.171 70.3775 37.9939 70.3775 37.7874V37.0915H71.3435V37.8448C71.3435 38.1481 71.2684 38.4259 71.1167 38.6808C70.965 38.9357 70.7623 39.1371 70.5075 39.2849C70.2526 39.4328 69.9773 39.5067 69.6816 39.5067H67.2562C66.9593 39.5067 66.684 39.4328 66.4303 39.2849ZM67.4792 36.1242H70.3788V37.0902H67.4792V36.1242Z" fill="white"/>
<path d="M73.2779 34.6746V36.1249H72.3118V34.8976C72.3118 34.5687 72.4278 34.2884 72.6598 34.0564C72.8917 33.8244 73.1721 33.7085 73.501 33.7085H76.9229C77.2518 33.7085 77.5322 33.8244 77.7641 34.0564C77.9961 34.2884 78.112 34.5687 78.112 34.8976V36.1249H77.146V34.6746H73.2804H73.2779ZM73.2779 39.5074V36.1249H77.1434V37.091H72.3105V39.5074H73.2766H73.2779ZM78.1108 39.5074V37.091H77.1447V39.5074H78.1108Z" fill="white"/>
<path d="M79.0771 34.8969C79.0771 34.5681 79.1931 34.2877 79.4251 34.0558C79.657 33.8238 79.9374 33.7079 80.2662 33.7079H80.5275C80.7913 33.7079 81.0182 33.8034 81.2093 33.9933C81.3992 34.1832 81.4949 34.4101 81.4949 34.6752H80.0457V39.508H79.0796V34.8982L79.0771 34.8969ZM81.4935 34.6739H82.4598V39.5068H81.4935V34.6739ZM83.9101 34.6739H82.4598C82.4598 34.4101 82.5551 34.1832 82.7466 33.992C82.9364 33.8021 83.1632 33.7065 83.4286 33.7065H83.6899C84.0186 33.7065 84.2988 33.8225 84.5305 34.0545C84.763 34.2864 84.8789 34.5669 84.8789 34.8956V39.5055H83.9126V34.6726L83.9101 34.6739Z" fill="white"/>
<path d="M85.8438 33.7085H88.2596V34.6746H85.8438V33.7085ZM85.8438 38.5414H88.2596V39.5074H85.8438V38.5414ZM91.6425 38.5414V39.5074H89.2259V34.6746H88.2596V38.5401H91.6425V38.5414ZM89.2259 33.7085H91.6425V34.6746H89.2259V33.7085Z" fill="white"/>
<path d="M92.6084 34.8969C92.6084 34.5681 92.7243 34.2877 92.9568 34.0558C93.1885 33.8238 93.4687 33.7079 93.7974 33.7079H94.0587C94.3225 33.7079 94.5493 33.8034 94.7407 33.9933C94.9305 34.1832 95.0259 34.4101 95.0259 34.6752H93.5772V39.508H92.6109V34.8982L92.6084 34.8969ZM95.025 34.6739H95.9914V38.5394H95.025V34.6739ZM96.2765 39.2213C96.0867 39.0314 95.9914 38.8046 95.9914 38.5394H97.44V33.7065H98.4064V38.3164C98.4064 38.6452 98.2905 38.9256 98.0579 39.1576C97.8262 39.3895 97.546 39.5055 97.2173 39.5055H96.956C96.6923 39.5055 96.4638 39.4099 96.274 39.22L96.2765 39.2213Z" fill="white"/>
<path d="M100.21 39.2849C99.955 39.1371 99.752 38.9357 99.6008 38.6808C99.4488 38.4259 99.374 38.1481 99.374 37.8448V35.371C99.374 35.0677 99.4488 34.7898 99.6008 34.5349C99.752 34.28 99.955 34.0786 100.21 33.9308C100.464 33.7829 100.74 33.709 101.036 33.709H103.461C103.737 33.709 103.996 33.774 104.234 33.9027C104.473 34.0315 104.669 34.206 104.824 34.4253C104.979 34.6445 105.073 34.8892 105.105 35.1594H104.11C104.051 35.018 103.958 34.9019 103.829 34.8115C103.7 34.721 103.559 34.6764 103.404 34.6764H101.036C100.829 34.6764 100.653 34.7503 100.51 34.8982C100.364 35.046 100.291 35.2231 100.291 35.4296V37.7874C100.291 37.9939 100.364 38.171 100.51 38.3188C100.654 38.4667 100.829 38.5406 101.036 38.5406H103.404C103.61 38.5406 103.787 38.4667 103.935 38.3188C104.083 38.171 104.157 37.9939 104.157 37.7874V37.0915H105.123V37.8448C105.123 38.1481 105.048 38.4259 104.896 38.6808C104.745 38.9357 104.542 39.1371 104.287 39.2849C104.032 39.4328 103.757 39.5067 103.461 39.5067H101.036C100.739 39.5067 100.464 39.4328 100.21 39.2849ZM101.259 36.1242H104.158V37.0902H101.259V36.1242Z" fill="white"/>
<path d="M79.2176 9.40922C79.2176 9.12631 79.2534 8.85481 79.3196 8.62416C79.5873 7.68614 80.4131 7.07948 81.4251 7.07821H95.4075C97.4404 7.07821 97.9794 9.28941 97.9794 9.28941H105.192C105.192 9.28941 105.01 7.21202 104.601 6.14144C103.255 2.62001 99.931 0.065918 96.1363 0.065918L81.1651 0.0684694C79.3503 0.0684694 77.7049 0.556603 76.2749 1.51885C73.6405 3.29167 72.2296 5.82664 72.194 8.84849L72.1914 12.1558H79.2164V9.40922H79.2176Z" fill="white"/>
<path d="M105.059 12.1553H85.7599V19.1624H98.0658L98.0633 20.2381C98.0633 20.4612 98.019 20.6931 97.9524 20.8919C97.6623 21.7599 96.8135 22.3678 95.8866 22.3691H81.3945C81.0427 22.3703 80.7674 22.3168 80.5507 22.2072C79.6267 21.7395 79.215 21.0716 79.2138 20.0456V19.1624H72.1875V20.6523C72.1875 21.6107 72.3698 22.5781 72.7279 23.5263C74.0483 27.0299 77.4397 29.3839 81.165 29.3839L96.0526 29.375C96.581 29.3737 97.1175 29.3291 97.6484 29.2424C101.777 28.5682 104.969 24.9079 105.072 20.7288L105.061 18.7189V12.1553H105.059Z" fill="white"/>
<path d="M42.9275 29.3842C42.3413 29.3842 41.8519 29.365 41.3879 29.3217C39.8738 29.184 38.5203 28.5072 37.363 27.3118C36.1242 26.0309 35.4909 24.4799 35.4794 22.7007L35.4756 0.0961914H42.47V22.3986H49.17L49.1738 23.6693C49.1815 26.5764 47.0709 28.6386 44.9833 29.1726C44.4798 29.3013 44.0262 29.3676 43.5954 29.3765C43.3736 29.3803 43.1519 29.3842 42.9288 29.3842H42.9275Z" fill="white"/>
<path d="M49.1724 0.117188H56.1809L56.1834 22.3852L49.18 22.4005L49.1724 0.117188Z" fill="white"/>
<path d="M62.5262 29.3802C62.033 29.3802 61.5946 29.3623 61.1868 29.3279C59.6982 29.1979 58.4109 28.4587 57.3607 27.1294C56.554 26.1073 56.1576 24.9322 56.1844 23.6348V22.3871H62.8602V0.0986328H69.8521L69.8673 22.5719C69.861 25.3566 68.4909 27.508 65.9037 28.7977C65.2142 29.1419 64.4813 29.3292 63.7243 29.356C63.3496 29.3688 62.9443 29.3815 62.5262 29.3815V29.3802Z" fill="white"/>
<path d="M0.168457 19.1855V29.4045H7.14761L7.15653 19.1855H0.168457Z" fill="white"/>
<path d="M26.021 29.4043V19.0107C26.021 19.0107 28.2398 19.0056 29.5399 19.467C31.3943 20.1247 32.4827 21.714 32.8892 23.5646C32.9683 23.9265 33.0103 24.5549 33.0103 24.7499V29.4043H26.021Z" fill="white"/>
<path d="M23.6564 19.1872H7.15676V12.1775H23.6564C25.0482 12.1775 26.1812 11.0457 26.1812 9.6527C26.1812 8.25966 25.0494 7.1279 23.6564 7.1279H7.16696V12.1456H0.157227V0.118164H23.6564C28.9137 0.118164 33.1909 4.39537 33.1909 9.6527C33.1909 14.91 28.9137 19.1872 23.6564 19.1872Z" fill="white"/>
</svg>
