<?xml version="1.0" encoding="utf-8"?>
<svg viewBox="0 4.25 26 13.5" fill="none" xmlns="http://www.w3.org/2000/svg">
 <path d="M 0.502 13.664 L 0.502 21.229 L 6.218 21.229 L 6.226 13.664 L 0.502 13.664 Z" fill="currentColor" style="" transform="matrix(1, 0, 0, 1, 0, 8.881784197001252e-16)"/>
  <path d="M 19.582 21.229 L 19.582 13.664 C 19.582 13.664 21.4 13.66 22.465 13.997 C 23.984 14.476 24.875 15.633 25.207 16.98 C 25.271 17.242 25.306 17.699 25.306 17.842 L 25.306 21.229 L 19.582 21.229 Z" fill="currentColor" style="" transform="matrix(1, 0, 0, 1, 0, 8.881784197001252e-16)"/>
  <path d="M 18.147 13.664 L 5.758 13.664 L 5.758 8.798 L 18.147 8.798 C 19.193 8.798 20.044 8.013 20.044 7.045 C 20.044 6.078 19.193 5.293 18.147 5.293 L 5.766 5.293 L 5.766 8.777 L 0.502 8.777 L 0.502 0.425 L 18.147 0.425 C 22.095 0.425 25.306 3.397 25.306 7.045 C 25.306 10.695 22.095 13.664 18.147 13.664 Z" fill="currentColor" style="" transform="matrix(1, 0, 0, 1, 0, 8.881784197001252e-16)"/>
</svg>