<svg viewBox="0 0 24 24" fill="none" xmlns="http://www.w3.org/2000/svg">
<g clip-path="url(#clip0_1087_7800)">
<path d="M23.6383 14.9029C22.0356 21.3315 15.5244 25.2438 9.09503 23.6407C2.66833 22.038 -1.24401 15.5265 0.359382 9.09837C1.96136 2.66903 8.47253 -1.24361 14.8999 0.359081C21.3289 1.96177 25.2411 8.47393 23.6383 14.9029Z" fill="white"/>
<path d="M11.9109 4L11.8036 4.36462V14.9442L11.9109 15.0512L16.8217 12.1484L11.9109 4Z" fill="#343434"/>
<path d="M11.9109 4L7 12.1484L11.9109 15.0512V9.91623V4Z" fill="#8C8C8C"/>
<path d="M11.911 15.981L11.8505 16.0548V19.8234L11.911 20L16.8248 13.0797L11.911 15.981Z" fill="#3C3C3B"/>
<path d="M11.9109 20V15.981L7 13.0797L11.9109 20Z" fill="#8C8C8C"/>
<path d="M11.9109 15.0512L16.8217 12.1484L11.9109 9.91622V15.0512Z" fill="#141414"/>
<path d="M7 12.1484L11.9109 15.0512V9.91622L7 12.1484Z" fill="#393939"/>
</g>
<defs>
<clipPath id="clip0_1087_7800">
<rect width="24" height="24" fill="white"/>
</clipPath>
</defs>
</svg>
